<?xml version="1.0" standalone="no"?>
<!DOCTYPE svg PUBLIC "-//W3C//DTD SVG 20010904//EN"
 "http://www.w3.org/TR/2001/REC-SVG-20010904/DTD/svg10.dtd">
<svg version="1.0" xmlns="http://www.w3.org/2000/svg"
 width="16.000000pt" height="16.000000pt" viewBox="0 0 16.000000 16.000000"
 preserveAspectRatio="xMidYMid meet">
<metadata>
Created by potrace 1.11, written by Peter Selinger 2001-2013
</metadata>
<g transform="translate(0.000000,16.000000) scale(0.002286,-0.002286)"
fill="#000000" stroke="none">
<path d="M3438 5970 c-35 -61 -71 -126 -82 -143 -109 -187 -203 -350 -232
-402 -12 -22 -117 -204 -234 -405 -117 -201 -225 -386 -239 -412 -14 -26 -87
-152 -161 -280 -74 -128 -139 -240 -145 -250 -26 -47 -470 -812 -486 -838 -11
-19 -174 -301 -205 -357 -13 -23 -54 -93 -90 -155 -68 -114 -80 -135 -141
-243 -19 -33 -42 -73 -52 -90 -10 -16 -30 -52 -45 -80 -16 -27 -32 -54 -36
-60 -4 -5 -19 -30 -32 -55 -14 -25 -133 -232 -266 -460 -132 -228 -292 -505
-355 -615 -64 -110 -114 -201 -112 -204 2 -2 1342 -3 2977 -3 2140 0 2972 4
2970 11 -2 11 -36 71 -304 536 -64 110 -124 216 -135 235 -11 19 -52 89 -90
155 -39 66 -122 210 -185 320 -64 110 -191 331 -283 490 -92 160 -175 304
-185 320 -37 66 -218 379 -305 530 -51 88 -103 179 -116 201 -13 23 -71 123
-129 223 -58 100 -114 198 -126 219 -11 20 -71 124 -133 231 -62 107 -125 215
-139 240 -14 25 -36 63 -49 83 -12 21 -23 40 -23 43 0 4 -13 26 -30 50 -16 24
-30 46 -30 48 0 3 -57 103 -126 223 -70 121 -135 235 -146 254 -11 19 -27 49
-37 65 -22 37 -202 348 -228 395 -33 57 -165 285 -168 288 -2 2 -32 -46 -67
-108z m177 -1385 c54 -93 107 -186 118 -205 10 -19 41 -72 68 -118 27 -45 49
-87 49 -92 0 -6 5 -10 10 -10 6 0 10 -4 10 -9 0 -5 23 -49 51 -98 28 -48 60
-104 71 -123 11 -19 37 -64 58 -100 21 -36 47 -81 58 -100 10 -19 84 -147 164
-285 80 -137 156 -270 170 -295 14 -25 64 -112 112 -193 47 -82 97 -167 110
-190 13 -23 65 -114 116 -202 51 -88 103 -179 116 -202 13 -23 53 -92 89 -153
36 -61 65 -115 65 -121 0 -5 5 -9 10 -9 6 0 10 -4 10 -10 0 -5 63 -118 141
-251 77 -132 138 -244 135 -247 -9 -8 -3677 -8 -3682 0 -3 4 63 126 147 270
84 145 161 279 172 298 10 19 36 64 57 100 21 36 47 81 58 100 11 19 70 123
132 230 62 107 145 251 185 320 40 69 107 186 150 260 43 74 153 266 245 425
92 160 209 362 260 450 51 88 104 180 118 205 14 25 52 89 84 143 32 55 58
101 58 103 0 2 13 25 29 51 15 27 54 92 86 147 31 54 60 94 65 90 4 -5 51 -85
105 -179z"/>
</g>
</svg>
