<svg version="1" xmlns="http://www.w3.org/2000/svg" width="21.333" height="21.333" viewBox="0 0 16.000000 16.000000"><path d="M7.86 2.353c-.08.139-.163.288-.188.326-.25.428-.464.8-.53.92-.028.05-.268.466-.535.925-.268.46-.515.883-.547.942-.032.06-.199.348-.368.64l-.331.572A379.25 379.25 0 0 1 4.25 8.593c-.025.044-.398.688-.469.816l-.206.355c-.155.26-.183.308-.322.555l-.119.206a4.163 4.163 0 0 0-.103.183l-.082.137a137.085 137.085 0 0 1-.681 1.177l-.812 1.406a5.43 5.43 0 0 0-.256.467c.005.004 3.068.006 6.806.006 4.892 0 6.794-.009 6.789-.025-.005-.025-.082-.162-.695-1.225-.146-.251-.283-.494-.309-.537l-.205-.355c-.09-.15-.28-.48-.423-.731-.147-.252-.437-.757-.647-1.12-.21-.366-.4-.695-.423-.732-.085-.15-.498-.866-.697-1.211-.117-.201-.236-.41-.265-.46l-.295-.51a51.136 51.136 0 0 1-.288-.5 63.188 63.188 0 0 0-.304-.528l-.318-.549a4.207 4.207 0 0 0-.112-.19.72.72 0 0 1-.053-.098.54.54 0 0 0-.068-.114 1.115 1.115 0 0 1-.069-.11c0-.007-.13-.235-.288-.51l-.334-.58c-.025-.044-.061-.112-.084-.149-.05-.085-.462-.795-.522-.903a58.11 58.11 0 0 0-.384-.658 1.777 1.777 0 0 0-.153.247zm.404 3.166c.123.212.244.425.27.468.022.044.093.165.155.27.062.103.112.199.112.21 0 .014.012.023.023.023.014 0 .023.01.023.02 0 .012.052.113.116.225l.163.281.132.229.133.228c.023.044.192.336.375.652.183.313.356.617.388.674.032.057.147.256.256.441l.252.435c.03.052.148.26.265.461l.265.462c.03.053.121.21.204.35.082.14.148.263.148.277 0 .011.012.02.023.02.014 0 .023.01.023.023 0 .011.144.27.322.574.176.302.316.558.309.564-.02.019-8.406.019-8.417 0-.007-.009.144-.288.336-.617l.393-.681c.023-.043.082-.146.13-.229l.133-.228c.025-.044.16-.281.302-.526l.423-.732c.091-.157.244-.425.343-.594l.56-.971a390.503 390.503 0 0 1 .864-1.498c.032-.057.119-.203.192-.327.073-.125.132-.23.132-.235 0-.005.03-.057.067-.117.034-.061.123-.21.196-.336.071-.123.137-.215.149-.206.009.012.116.195.24.41z"/></svg>